<?xml version="1.0" encoding="utf-8"?>
<!-- Generator: Adobe Illustrator 16.0.0, SVG Export Plug-In . SVG Version: 6.00 Build 0)  -->
<!DOCTYPE svg PUBLIC "-//W3C//DTD SVG 1.1//EN" "http://www.w3.org/Graphics/SVG/1.1/DTD/svg11.dtd">
<svg version="1.1" id="Layer_1" xmlns="http://www.w3.org/2000/svg" xmlns:xlink="http://www.w3.org/1999/xlink" x="0px" y="0px"
	 width="27px" height="27px" viewBox="0 0 27 27" enable-background="new 0 0 27 27" xml:space="preserve">
<g id="From_Your_Friends_at_User10.com">
</g>
<g id="RAW_ICONS_-_SQUARE__x2F__ROUNDED__x2F__CIRCLE">
	<path fill="#E74C3C" d="M13.5,1C6.597,1,1,6.597,1,13.5C1,20.404,6.597,26,13.5,26C20.402,26,26,20.404,26,13.5
		C26,6.597,20.402,1,13.5,1z M14.79,16.283c-0.772,0-1.504-0.42-1.753-0.895c0,0-0.417,1.654-0.505,1.973
		c-0.312,1.13-1.226,2.26-1.297,2.351c-0.049,0.063-0.16,0.044-0.171-0.041c-0.02-0.146-0.254-1.567,0.022-2.729
		c0.137-0.582,0.923-3.912,0.923-3.912s-0.229-0.458-0.229-1.136c0-1.064,0.617-1.857,1.385-1.857c0.653,0,0.969,0.489,0.969,1.076
		c0,0.657-0.418,1.639-0.634,2.549c-0.18,0.761,0.382,1.382,1.133,1.382c1.361,0,2.276-1.747,2.276-3.818
		c0-1.572-1.06-2.75-2.988-2.75c-2.176,0-3.533,1.625-3.533,3.438c0,0.627,0.184,1.067,0.473,1.408
		c0.134,0.157,0.152,0.221,0.104,0.401c-0.036,0.13-0.114,0.449-0.146,0.575c-0.049,0.183-0.195,0.246-0.36,0.179
		c-1.004-0.408-1.471-1.506-1.471-2.743c0-2.038,1.721-4.484,5.132-4.484c2.741,0,4.546,1.983,4.546,4.113
		C18.665,14.18,17.1,16.283,14.79,16.283z"/>
</g>
</svg>
