<?xml version="1.0" encoding="utf-8"?>
<!-- Generator: Adobe Illustrator 16.0.0, SVG Export Plug-In . SVG Version: 6.00 Build 0)  -->
<!DOCTYPE svg PUBLIC "-//W3C//DTD SVG 1.1//EN" "http://www.w3.org/Graphics/SVG/1.1/DTD/svg11.dtd">
<svg version="1.1" id="Layer_1" xmlns="http://www.w3.org/2000/svg" xmlns:xlink="http://www.w3.org/1999/xlink" x="0px" y="0px"
	 width="27px" height="27px" viewBox="0 0 27 27" enable-background="new 0 0 27 27" xml:space="preserve">
<g id="From_Your_Friends_at_User10.com">
</g>
<g id="RAW_ICONS_-_SQUARE__x2F__ROUNDED__x2F__CIRCLE">
	<path fill="#3498DB" d="M13.5,1C6.597,1,1,6.597,1,13.5C1,20.404,6.597,26,13.5,26C20.402,26,26,20.404,26,13.5
		C26,6.597,20.402,1,13.5,1z M16.18,13.505h-1.752c0,2.798,0,6.245,0,6.245h-2.597c0,0,0-3.412,0-6.245h-1.235v-2.207h1.235V9.869
		c0-1.021,0.484-2.619,2.619-2.619l1.922,0.008V9.4c0,0-1.169,0-1.396,0c-0.229,0-0.551,0.114-0.551,0.603v1.296h1.979L16.18,13.505
		z"/>
</g>
</svg>
