<?xml version="1.0" encoding="utf-8"?>
<!-- Generator: Adobe Illustrator 16.0.0, SVG Export Plug-In . SVG Version: 6.00 Build 0)  -->
<!DOCTYPE svg PUBLIC "-//W3C//DTD SVG 1.1//EN" "http://www.w3.org/Graphics/SVG/1.1/DTD/svg11.dtd">
<svg version="1.1" id="Layer_1" xmlns="http://www.w3.org/2000/svg" xmlns:xlink="http://www.w3.org/1999/xlink" x="0px" y="0px"
	 width="27px" height="27px" viewBox="0 0 27 27" enable-background="new 0 0 27 27" xml:space="preserve">
<g id="From_Your_Friends_at_User10.com">
</g>
<g id="RAW_ICONS_-_SQUARE__x2F__ROUNDED__x2F__CIRCLE">
	<g>
		<path fill="#C0392B" d="M13.364,11.171c0.119,0,0.212-0.031,0.281-0.097c0.07-0.065,0.105-0.157,0.105-0.271V8.482
			c0-0.094-0.035-0.168-0.106-0.227c-0.071-0.058-0.164-0.085-0.28-0.085c-0.105,0-0.191,0.027-0.259,0.085
			c-0.065,0.059-0.099,0.133-0.099,0.227v2.321c0,0.117,0.031,0.207,0.093,0.271C13.161,11.142,13.25,11.171,13.364,11.171z"/>
		<path fill="#C0392B" d="M15.287,15.459c-0.121,0-0.239,0.029-0.357,0.092c-0.115,0.063-0.227,0.153-0.33,0.27v-1.688h-0.783v5.245
			H14.6V19.08c0.101,0.119,0.211,0.205,0.33,0.261c0.117,0.058,0.252,0.084,0.403,0.084c0.229,0,0.405-0.071,0.524-0.219
			c0.123-0.147,0.184-0.356,0.184-0.629V16.43c0-0.316-0.063-0.558-0.193-0.724C15.719,15.541,15.532,15.459,15.287,15.459z
			 M15.244,18.471c0,0.125-0.021,0.211-0.066,0.266c-0.045,0.057-0.113,0.084-0.209,0.084c-0.064,0-0.127-0.014-0.187-0.043
			c-0.06-0.025-0.121-0.073-0.185-0.137v-2.41c0.053-0.055,0.105-0.094,0.159-0.119c0.054-0.024,0.109-0.037,0.164-0.037
			c0.104,0,0.185,0.033,0.241,0.101c0.055,0.067,0.081,0.166,0.081,0.3L15.244,18.471L15.244,18.471z"/>
		<polygon fill="#C0392B" points="8.012,14.895 8.913,14.895 8.913,19.376 9.784,19.376 9.784,14.895 10.687,14.895 10.687,14.131 
			8.012,14.131 		"/>
		<path fill="#C0392B" d="M12.462,18.445c-0.073,0.084-0.152,0.152-0.24,0.209c-0.087,0.054-0.159,0.08-0.216,0.08
			c-0.071,0-0.125-0.02-0.158-0.063c-0.031-0.041-0.048-0.105-0.048-0.197v-2.97h-0.773v3.236c0,0.231,0.046,0.399,0.136,0.517
			c0.091,0.117,0.225,0.174,0.404,0.174c0.145,0,0.295-0.039,0.449-0.123c0.154-0.082,0.303-0.201,0.446-0.357v0.425h0.773v-3.87
			h-0.773V18.445z"/>
		<path fill="#C0392B" d="M13.5,1C6.598,1,1,6.598,1,13.5C1,20.404,6.598,26,13.5,26C20.402,26,26,20.404,26,13.5
			C26,6.598,20.402,1,13.5,1z M15.344,7.54h0.869v3.268c0,0.101,0.021,0.173,0.057,0.218c0.035,0.047,0.097,0.069,0.178,0.069
			c0.063,0,0.146-0.03,0.244-0.09c0.097-0.062,0.187-0.136,0.268-0.229V7.54h0.871v4.262h-0.871V11.33
			c-0.16,0.173-0.327,0.308-0.501,0.397s-0.342,0.138-0.505,0.138c-0.202,0-0.354-0.065-0.455-0.194
			c-0.104-0.125-0.152-0.315-0.152-0.568V7.54H15.344z M12.11,8.514c0-0.33,0.118-0.594,0.352-0.787
			c0.233-0.196,0.55-0.293,0.945-0.293c0.36,0,0.655,0.103,0.887,0.308c0.229,0.205,0.345,0.474,0.345,0.797v2.202
			c0,0.365-0.113,0.649-0.338,0.858c-0.227,0.207-0.538,0.312-0.934,0.312c-0.38,0-0.686-0.108-0.914-0.323
			c-0.228-0.214-0.343-0.502-0.343-0.863V8.514z M9.739,6.024l0.636,2.311h0.062l0.607-2.311h0.996l-1.142,3.382v2.396H9.919v-2.29
			L8.752,6.024H9.739z M21.145,18.184c0,1.543-1.252,2.795-2.793,2.795H8.648c-1.543,0-2.792-1.252-2.792-2.795v-2.244
			c0-1.541,1.249-2.793,2.792-2.793h9.702c1.543,0,2.793,1.252,2.793,2.793v2.244H21.145z"/>
		<path fill="#C0392B" d="M17.621,15.411c-0.346,0-0.627,0.104-0.846,0.315c-0.221,0.211-0.33,0.485-0.33,0.819v1.737
			c0,0.373,0.102,0.667,0.3,0.878c0.198,0.214,0.472,0.317,0.817,0.317c0.387,0,0.676-0.099,0.867-0.297
			c0.196-0.203,0.293-0.502,0.293-0.898v-0.197h-0.795v0.176c0,0.229-0.027,0.375-0.078,0.441s-0.141,0.102-0.27,0.102
			c-0.123,0-0.211-0.039-0.262-0.117c-0.051-0.08-0.076-0.223-0.076-0.426v-0.729h1.48v-0.987c0-0.366-0.097-0.647-0.287-0.843
			C18.248,15.508,17.977,15.411,17.621,15.411z M17.928,16.932h-0.685v-0.39c0-0.163,0.026-0.28,0.079-0.349
			c0.056-0.071,0.144-0.107,0.267-0.107c0.117,0,0.205,0.036,0.257,0.107c0.055,0.068,0.082,0.186,0.082,0.349V16.932L17.928,16.932
			z"/>
	</g>
</g>
</svg>
